<svg xmlns="http://www.w3.org/2000/svg" version="1.1" xmlns:xlink="http://www.w3.org/1999/xlink" xmlns:svgjs="http://svgjs.com/svgjs" width="1850" height="1024" preserveAspectRatio="none" viewBox="0 0 1850 1024">
    <g mask="url(&quot;#SvgjsMask2343&quot;)" fill="none">
        <rect width="1850" height="1024" x="0" y="0" fill="rgba(255, 255, 255, 1)"></rect>
        <g mask="url(&quot;#SvgjsMask2345&quot;)">
            <path d="M437 589L475 627L513 627L551 627L589 627M285 551L323 551L361 551L399 551M209 551L247 589L285 589M-19 513L19 513L57 513L95 551L133 551L171 551L209 551L247 551L285 551L323 589L361 589L399 589L437 589L475 589" stroke="url(#SvgjsLinearGradient2344)" stroke-width="6.33"></path>
            <path d="M465.5 589 a9.5 9.5 0 1 0 19 0 a9.5 9.5 0 1 0 -19 0zM579.5 627 a9.5 9.5 0 1 0 19 0 a9.5 9.5 0 1 0 -19 0zM389.5 551 a9.5 9.5 0 1 0 19 0 a9.5 9.5 0 1 0 -19 0zM275.5 589 a9.5 9.5 0 1 0 19 0 a9.5 9.5 0 1 0 -19 0z" fill="url(#SvgjsLinearGradient2344)"></path>
            <path d="M437 551L475 513L513 513M513 551L551 589L589 589L627 589L665 589M399 513L437 513M209 475L247 475M-19 475L19 475L57 475L95 475L133 475L171 475L209 475L247 513L285 513L323 513L361 513L399 513L437 551L475 551L513 551L551 551L589 551" stroke="url(#SvgjsLinearGradient2344)" stroke-width="6.33"></path>
            <path d="M579.5 551 a9.5 9.5 0 1 0 19 0 a9.5 9.5 0 1 0 -19 0zM503.5 513 a9.5 9.5 0 1 0 19 0 a9.5 9.5 0 1 0 -19 0zM655.5 589 a9.5 9.5 0 1 0 19 0 a9.5 9.5 0 1 0 -19 0zM427.5 513 a9.5 9.5 0 1 0 19 0 a9.5 9.5 0 1 0 -19 0zM237.5 475 a9.5 9.5 0 1 0 19 0 a9.5 9.5 0 1 0 -19 0z" fill="url(#SvgjsLinearGradient2344)"></path>
            <path d="M-19 551L19 551" stroke="url(#SvgjsLinearGradient2344)" stroke-width="6.33"></path>
            <path d="M9.5 551 a9.5 9.5 0 1 0 19 0 a9.5 9.5 0 1 0 -19 0z" fill="url(#SvgjsLinearGradient2344)"></path>
            <path d="M361 475L399 437M323 475L361 437M437 437L475 475L513 475M-19 437L19 437L57 437L95 437L133 437L171 437L209 437L247 437L285 475L323 475L361 475L399 475L437 437L475 437L513 437" stroke="url(#SvgjsLinearGradient2344)" stroke-width="6.33"></path>
            <path d="M503.5 437 a9.5 9.5 0 1 0 19 0 a9.5 9.5 0 1 0 -19 0zM389.5 437 a9.5 9.5 0 1 0 19 0 a9.5 9.5 0 1 0 -19 0zM351.5 437 a9.5 9.5 0 1 0 19 0 a9.5 9.5 0 1 0 -19 0zM503.5 475 a9.5 9.5 0 1 0 19 0 a9.5 9.5 0 1 0 -19 0z" fill="url(#SvgjsLinearGradient2344)"></path>
            <path d="M-19 589L19 589L57 589" stroke="url(#SvgjsLinearGradient2344)" stroke-width="6.33"></path>
            <path d="M47.5 589 a9.5 9.5 0 1 0 19 0 a9.5 9.5 0 1 0 -19 0z" fill="url(#SvgjsLinearGradient2344)"></path>
            <path d="M95 399L133 361L171 361M1121 323L1159 361M1159 323L1197 285L1235 285M855 361L893 361L931 361L969 361M475 399L513 361L551 361L589 361L627 361L665 323L703 323M361 399L399 361L437 361M551 399L589 437L627 437L665 437L703 475L741 475M209 399L247 361L285 361L323 361L361 361M1235 323L1273 361L1311 361M-19 399L19 399L57 399L95 399L133 399L171 399L209 399L247 399L285 399L323 399L361 399L399 399L437 399L475 399L513 399L551 399L589 399L627 399L665 361L703 361L741 361L779 361L817 361L855 361L893 323L931 323L969 323L1007 323L1045 323L1083 323L1121 323L1159 323L1197 323L1235 323L1273 323L1311 323" stroke="url(#SvgjsLinearGradient2344)" stroke-width="6.33"></path>
            <path d="M1301.5 323 a9.5 9.5 0 1 0 19 0 a9.5 9.5 0 1 0 -19 0zM161.5 361 a9.5 9.5 0 1 0 19 0 a9.5 9.5 0 1 0 -19 0zM1149.5 361 a9.5 9.5 0 1 0 19 0 a9.5 9.5 0 1 0 -19 0zM1225.5 285 a9.5 9.5 0 1 0 19 0 a9.5 9.5 0 1 0 -19 0zM959.5 361 a9.5 9.5 0 1 0 19 0 a9.5 9.5 0 1 0 -19 0zM693.5 323 a9.5 9.5 0 1 0 19 0 a9.5 9.5 0 1 0 -19 0zM427.5 361 a9.5 9.5 0 1 0 19 0 a9.5 9.5 0 1 0 -19 0zM731.5 475 a9.5 9.5 0 1 0 19 0 a9.5 9.5 0 1 0 -19 0zM351.5 361 a9.5 9.5 0 1 0 19 0 a9.5 9.5 0 1 0 -19 0zM1301.5 361 a9.5 9.5 0 1 0 19 0 a9.5 9.5 0 1 0 -19 0z" fill="url(#SvgjsLinearGradient2344)"></path>
            <path d="M399 627L437 627M95 627L133 589L171 589L209 589M741 665L779 665M931 703L969 665L1007 665M969 703L1007 741L1045 741L1083 741L1121 741M893 703L931 741L969 741L1007 779L1045 779L1083 779M817 703L855 665L893 627L931 627L969 627L1007 627L1045 627L1083 627L1121 627L1159 627L1197 665L1235 665L1273 665M-19 627L19 627L57 627L95 627L133 627L171 627L209 627L247 627L285 627L323 627L361 627L399 627L437 665L475 665L513 665L551 665L589 665L627 665L665 665L703 665L741 665L779 703L817 703L855 703L893 703L931 703L969 703L1007 703L1045 703L1083 703" stroke="url(#SvgjsLinearGradient2344)" stroke-width="6.33"></path>
            <path d="M1073.5 703 a9.5 9.5 0 1 0 19 0 a9.5 9.5 0 1 0 -19 0zM427.5 627 a9.5 9.5 0 1 0 19 0 a9.5 9.5 0 1 0 -19 0zM199.5 589 a9.5 9.5 0 1 0 19 0 a9.5 9.5 0 1 0 -19 0zM769.5 665 a9.5 9.5 0 1 0 19 0 a9.5 9.5 0 1 0 -19 0zM997.5 665 a9.5 9.5 0 1 0 19 0 a9.5 9.5 0 1 0 -19 0zM1111.5 741 a9.5 9.5 0 1 0 19 0 a9.5 9.5 0 1 0 -19 0zM1073.5 779 a9.5 9.5 0 1 0 19 0 a9.5 9.5 0 1 0 -19 0zM1263.5 665 a9.5 9.5 0 1 0 19 0 a9.5 9.5 0 1 0 -19 0z" fill="url(#SvgjsLinearGradient2344)"></path>
            <path d="M-19 361L19 361L57 361" stroke="url(#SvgjsLinearGradient2344)" stroke-width="6.33"></path>
            <path d="M47.5 361 a9.5 9.5 0 1 0 19 0 a9.5 9.5 0 1 0 -19 0z" fill="url(#SvgjsLinearGradient2344)"></path>
            <path d="M285 665L323 703L361 703L399 703L437 741L475 741L513 741L551 741L589 741M931 779L969 779M19 665L57 703M741 741L779 779L817 817L855 817M171 665L209 703L247 703L285 703M703 741L741 703M-19 665L19 665L57 665L95 665L133 665L171 665L209 665L247 665L285 665L323 665L361 665L399 665L437 703L475 703L513 703L551 703L589 703L627 741L665 741L703 741L741 741L779 741L817 741L855 741L893 779L931 779L969 817" stroke="url(#SvgjsLinearGradient2344)" stroke-width="6.33"></path>
            <path d="M959.5 817 a9.5 9.5 0 1 0 19 0 a9.5 9.5 0 1 0 -19 0zM579.5 741 a9.5 9.5 0 1 0 19 0 a9.5 9.5 0 1 0 -19 0zM959.5 779 a9.5 9.5 0 1 0 19 0 a9.5 9.5 0 1 0 -19 0zM47.5 703 a9.5 9.5 0 1 0 19 0 a9.5 9.5 0 1 0 -19 0zM845.5 817 a9.5 9.5 0 1 0 19 0 a9.5 9.5 0 1 0 -19 0zM275.5 703 a9.5 9.5 0 1 0 19 0 a9.5 9.5 0 1 0 -19 0zM731.5 703 a9.5 9.5 0 1 0 19 0 a9.5 9.5 0 1 0 -19 0z" fill="url(#SvgjsLinearGradient2344)"></path>
            <path d="M665 247L703 209L741 209M513 323L551 285L589 285L627 247L665 209M361 323L399 285M589 323L627 323M627 285L665 285L703 285L741 285L779 285L817 285M-19 323L19 323L57 323L95 323L133 323L171 323L209 323L247 323L285 323L323 323L361 323L399 323L437 323L475 323L513 323L551 323L589 323L627 285L665 247L703 247L741 247" stroke="url(#SvgjsLinearGradient2344)" stroke-width="6.33"></path>
            <path d="M731.5 247 a9.5 9.5 0 1 0 19 0 a9.5 9.5 0 1 0 -19 0zM731.5 209 a9.5 9.5 0 1 0 19 0 a9.5 9.5 0 1 0 -19 0zM655.5 209 a9.5 9.5 0 1 0 19 0 a9.5 9.5 0 1 0 -19 0zM389.5 285 a9.5 9.5 0 1 0 19 0 a9.5 9.5 0 1 0 -19 0zM617.5 323 a9.5 9.5 0 1 0 19 0 a9.5 9.5 0 1 0 -19 0zM807.5 285 a9.5 9.5 0 1 0 19 0 a9.5 9.5 0 1 0 -19 0z" fill="url(#SvgjsLinearGradient2344)"></path>
            <path d="M475 817L513 779L551 779L589 779L627 779L665 779L703 779L741 779M665 817L703 855L741 855L779 893L817 893M551 817L589 855L627 855L665 855L703 893M133 741L171 703M513 817L551 855L589 893L627 893L665 893M-19 703L19 741L57 741L95 741L133 741L171 741L209 741L247 741L285 741L323 741L361 779L399 779L437 779L475 817L513 817L551 817L589 817L627 817L665 817L703 817L741 817L779 817" stroke="url(#SvgjsLinearGradient2344)" stroke-width="6.33"></path>
            <path d="M769.5 817 a9.5 9.5 0 1 0 19 0 a9.5 9.5 0 1 0 -19 0zM731.5 779 a9.5 9.5 0 1 0 19 0 a9.5 9.5 0 1 0 -19 0zM807.5 893 a9.5 9.5 0 1 0 19 0 a9.5 9.5 0 1 0 -19 0zM693.5 893 a9.5 9.5 0 1 0 19 0 a9.5 9.5 0 1 0 -19 0zM161.5 703 a9.5 9.5 0 1 0 19 0 a9.5 9.5 0 1 0 -19 0zM655.5 893 a9.5 9.5 0 1 0 19 0 a9.5 9.5 0 1 0 -19 0z" fill="url(#SvgjsLinearGradient2344)"></path>
            <path d="M399 247L437 247L475 247L513 247M247 285L285 247L323 247M19 285L57 247M-19 285L19 285L57 285L95 285L133 285L171 285L209 285L247 285L285 285L323 285L361 247L399 247L437 285" stroke="url(#SvgjsLinearGradient2344)" stroke-width="6.33"></path>
            <path d="M427.5 285 a9.5 9.5 0 1 0 19 0 a9.5 9.5 0 1 0 -19 0zM503.5 247 a9.5 9.5 0 1 0 19 0 a9.5 9.5 0 1 0 -19 0zM313.5 247 a9.5 9.5 0 1 0 19 0 a9.5 9.5 0 1 0 -19 0zM47.5 247 a9.5 9.5 0 1 0 19 0 a9.5 9.5 0 1 0 -19 0z" fill="url(#SvgjsLinearGradient2344)"></path>
        </g>
    </g>
    <defs>
        <mask id="SvgjsMask2343">
            <rect width="1850" height="1024" fill="#ffffff"></rect>
        </mask>
        <linearGradient x1="0" y1="512" x2="1387.5" y2="512" gradientUnits="userSpaceOnUse" id="SvgjsLinearGradient2344">
            <stop stop-color="#3a7cc3" offset="0"></stop>
            <stop stop-color="rgba(239, 255, 0, 1)" offset="1"></stop>
        </linearGradient>
        <mask id="SvgjsMask2345">
            <rect width="1850" height="1024" fill="white"></rect>
            <path d="M470.25 589 a4.75 4.75 0 1 0 9.5 0 a4.75 4.75 0 1 0 -9.5 0zM584.25 627 a4.75 4.75 0 1 0 9.5 0 a4.75 4.75 0 1 0 -9.5 0zM394.25 551 a4.75 4.75 0 1 0 9.5 0 a4.75 4.75 0 1 0 -9.5 0zM280.25 589 a4.75 4.75 0 1 0 9.5 0 a4.75 4.75 0 1 0 -9.5 0z" fill="black"></path>
            <path d="M584.25 551 a4.75 4.75 0 1 0 9.5 0 a4.75 4.75 0 1 0 -9.5 0zM508.25 513 a4.75 4.75 0 1 0 9.5 0 a4.75 4.75 0 1 0 -9.5 0zM660.25 589 a4.75 4.75 0 1 0 9.5 0 a4.75 4.75 0 1 0 -9.5 0zM432.25 513 a4.75 4.75 0 1 0 9.5 0 a4.75 4.75 0 1 0 -9.5 0zM242.25 475 a4.75 4.75 0 1 0 9.5 0 a4.75 4.75 0 1 0 -9.5 0z" fill="black"></path>
            <path d="M14.25 551 a4.75 4.75 0 1 0 9.5 0 a4.75 4.75 0 1 0 -9.5 0z" fill="black"></path>
            <path d="M508.25 437 a4.75 4.75 0 1 0 9.5 0 a4.75 4.75 0 1 0 -9.5 0zM394.25 437 a4.75 4.75 0 1 0 9.5 0 a4.75 4.75 0 1 0 -9.5 0zM356.25 437 a4.75 4.75 0 1 0 9.5 0 a4.75 4.75 0 1 0 -9.5 0zM508.25 475 a4.75 4.75 0 1 0 9.5 0 a4.75 4.75 0 1 0 -9.5 0z" fill="black"></path>
            <path d="M52.25 589 a4.75 4.75 0 1 0 9.5 0 a4.75 4.75 0 1 0 -9.5 0z" fill="black"></path>
            <path d="M1306.25 323 a4.75 4.75 0 1 0 9.5 0 a4.75 4.75 0 1 0 -9.5 0zM166.25 361 a4.75 4.75 0 1 0 9.5 0 a4.75 4.75 0 1 0 -9.5 0zM1154.25 361 a4.75 4.75 0 1 0 9.5 0 a4.75 4.75 0 1 0 -9.5 0zM1230.25 285 a4.75 4.75 0 1 0 9.5 0 a4.75 4.75 0 1 0 -9.5 0zM964.25 361 a4.75 4.75 0 1 0 9.5 0 a4.75 4.75 0 1 0 -9.5 0zM698.25 323 a4.75 4.75 0 1 0 9.5 0 a4.75 4.75 0 1 0 -9.5 0zM432.25 361 a4.75 4.75 0 1 0 9.5 0 a4.75 4.75 0 1 0 -9.5 0zM736.25 475 a4.75 4.75 0 1 0 9.5 0 a4.75 4.75 0 1 0 -9.5 0zM356.25 361 a4.75 4.75 0 1 0 9.5 0 a4.75 4.75 0 1 0 -9.5 0zM1306.25 361 a4.75 4.75 0 1 0 9.5 0 a4.75 4.75 0 1 0 -9.5 0z" fill="black"></path>
            <path d="M1078.25 703 a4.75 4.75 0 1 0 9.5 0 a4.75 4.75 0 1 0 -9.5 0zM432.25 627 a4.75 4.75 0 1 0 9.5 0 a4.75 4.75 0 1 0 -9.5 0zM204.25 589 a4.75 4.75 0 1 0 9.5 0 a4.75 4.75 0 1 0 -9.5 0zM774.25 665 a4.75 4.75 0 1 0 9.5 0 a4.75 4.75 0 1 0 -9.5 0zM1002.25 665 a4.75 4.75 0 1 0 9.5 0 a4.75 4.75 0 1 0 -9.5 0zM1116.25 741 a4.75 4.75 0 1 0 9.5 0 a4.75 4.75 0 1 0 -9.5 0zM1078.25 779 a4.75 4.75 0 1 0 9.5 0 a4.75 4.75 0 1 0 -9.5 0zM1268.25 665 a4.75 4.75 0 1 0 9.5 0 a4.75 4.75 0 1 0 -9.5 0z" fill="black"></path>
            <path d="M52.25 361 a4.75 4.75 0 1 0 9.5 0 a4.75 4.75 0 1 0 -9.5 0z" fill="black"></path>
            <path d="M964.25 817 a4.75 4.75 0 1 0 9.5 0 a4.75 4.75 0 1 0 -9.5 0zM584.25 741 a4.75 4.75 0 1 0 9.5 0 a4.75 4.75 0 1 0 -9.5 0zM964.25 779 a4.75 4.75 0 1 0 9.5 0 a4.75 4.75 0 1 0 -9.5 0zM52.25 703 a4.75 4.75 0 1 0 9.5 0 a4.75 4.75 0 1 0 -9.5 0zM850.25 817 a4.75 4.75 0 1 0 9.5 0 a4.75 4.75 0 1 0 -9.5 0zM280.25 703 a4.75 4.75 0 1 0 9.5 0 a4.75 4.75 0 1 0 -9.5 0zM736.25 703 a4.75 4.75 0 1 0 9.5 0 a4.75 4.75 0 1 0 -9.5 0z" fill="black"></path>
            <path d="M736.25 247 a4.75 4.75 0 1 0 9.5 0 a4.75 4.75 0 1 0 -9.5 0zM736.25 209 a4.75 4.75 0 1 0 9.5 0 a4.75 4.75 0 1 0 -9.5 0zM660.25 209 a4.75 4.75 0 1 0 9.5 0 a4.75 4.75 0 1 0 -9.5 0zM394.25 285 a4.75 4.75 0 1 0 9.5 0 a4.75 4.75 0 1 0 -9.5 0zM622.25 323 a4.75 4.75 0 1 0 9.5 0 a4.75 4.75 0 1 0 -9.5 0zM812.25 285 a4.75 4.75 0 1 0 9.5 0 a4.75 4.75 0 1 0 -9.5 0z" fill="black"></path>
            <path d="M774.25 817 a4.75 4.75 0 1 0 9.5 0 a4.75 4.75 0 1 0 -9.5 0zM736.25 779 a4.75 4.75 0 1 0 9.5 0 a4.75 4.75 0 1 0 -9.5 0zM812.25 893 a4.75 4.75 0 1 0 9.5 0 a4.75 4.75 0 1 0 -9.5 0zM698.25 893 a4.75 4.75 0 1 0 9.5 0 a4.75 4.75 0 1 0 -9.5 0zM166.25 703 a4.75 4.75 0 1 0 9.5 0 a4.75 4.75 0 1 0 -9.5 0zM660.25 893 a4.75 4.75 0 1 0 9.5 0 a4.75 4.75 0 1 0 -9.5 0z" fill="black"></path>
            <path d="M432.25 285 a4.75 4.75 0 1 0 9.5 0 a4.75 4.75 0 1 0 -9.5 0zM508.25 247 a4.75 4.75 0 1 0 9.5 0 a4.75 4.75 0 1 0 -9.5 0zM318.25 247 a4.75 4.75 0 1 0 9.5 0 a4.75 4.75 0 1 0 -9.5 0zM52.25 247 a4.75 4.75 0 1 0 9.5 0 a4.75 4.75 0 1 0 -9.5 0z" fill="black"></path>
        </mask>
    </defs>
</svg>