<svg xmlns="http://www.w3.org/2000/svg" version="1.1" xmlns:xlink="http://www.w3.org/1999/xlink" xmlns:svgjs="http://svgjs.com/svgjs" width="2560" height="1440" preserveAspectRatio="none" viewBox="0 0 2560 1440">
    <g mask="url(&quot;#SvgjsMask1081&quot;)" fill="none">
        <rect width="2560" height="1440" x="0" y="0" fill="rgba(0, 34, 255, 1)"></rect>
        <path d="M1527.2813278341725 362.47078569697055L1750.3428840353686 512.9277051348026 1900.7998034732007 289.86614893360667 1677.7382472720046 139.40922949577458z" fill="rgba(0, 1, 225, 0.56)" class="triangle-float2"></path>
        <path d="M691.4058213219636 681.2715173031685L609.5735636638433 906.1037974018465 987.7381126409205 916.4360438396877z" fill="rgba(0, 1, 225, 0.56)" class="triangle-float1"></path>
        <path d="M181.08 1416.06 a342.64 342.64 0 1 0 685.28 0 a342.64 342.64 0 1 0 -685.28 0z" fill="rgba(0, 1, 225, 0.56)" class="triangle-float1"></path>
        <path d="M1509.165360671387 451.472260211127L1405.3040834566445 63.85669670671274 1017.6885199522302 167.7179739214552 1121.5497971669727 555.3335374258694z" fill="rgba(0, 1, 225, 0.56)" class="triangle-float1"></path>
        <path d="M1389.939694083625 1171.0234815201734L1424.99472928399 1392.3522631134642 1646.3235108772808 1357.2972279130993 1611.2684756769158 1135.9684463198084z" fill="rgba(0, 1, 225, 0.56)" class="triangle-float1"></path>
        <path d="M2340.1538276981473 976.3514101144107L2600.7267076187195 741.7305351995919 2105.5329527833287 715.7785301938385z" fill="rgba(0, 1, 225, 0.56)" class="triangle-float3"></path>
        <path d="M2054.15344631236 1078.9062911771125L1841.7412885623858 1143.8472049161164 2119.0943600513638 1291.3184489270866z" fill="rgba(0, 1, 225, 0.56)" class="triangle-float1"></path>
        <path d="M1736.99 37.02 a317.93 317.93 0 1 0 635.86 0 a317.93 317.93 0 1 0 -635.86 0z" fill="rgba(0, 1, 225, 0.56)" class="triangle-float2"></path>
    </g>
    <defs>
        <mask id="SvgjsMask1081">
            <rect width="2560" height="1440" fill="#ffffff"></rect>
        </mask>
        <style>
            @keyframes float1 {
                0%{transform: translate(0, 0)}
                50%{transform: translate(-10px, 0)}
                100%{transform: translate(0, 0)}
            }

            .triangle-float1 {
                animation: float1 5s infinite;
            }

            @keyframes float2 {
                0%{transform: translate(0, 0)}
                50%{transform: translate(-5px, -5px)}
                100%{transform: translate(0, 0)}
            }

            .triangle-float2 {
                animation: float2 4s infinite;
            }

            @keyframes float3 {
                0%{transform: translate(0, 0)}
                50%{transform: translate(0, -10px)}
                100%{transform: translate(0, 0)}
            }

            .triangle-float3 {
                animation: float3 6s infinite;
            }
        </style>
    </defs>
</svg>